<svg xmlns="http://www.w3.org/2000/svg" viewBox="0 0 5228 1000" width="5228" height="1000" fill="none"><g transform="translate(40 710) scale(1 -1)"><path fill="#0a0a0c" d="M344.0 -10.0Q191.0 -10.0 109.0 50.0Q27.0 110.0 27.0 226.0V232.0H177.0V214.0Q177.0 166.0 211.0 146.5Q245.0 127.0 344.0 127.0Q431.0 127.0 461.5 141.0Q492.0 155.0 492.0 190.0Q492.0 220.0 472.0 234.5Q452.0 249.0 400.0 258.0L212.0 285.0Q21.0 315.0 21.0 473.0Q21.0 559.0 96.5 619.5Q172.0 680.0 328.0 680.0Q478.0 680.0 554.0 617.0Q630.0 554.0 630.0 444.0V438.0H479.0V452.0Q479.0 502.0 444.5 522.5Q410.0 543.0 313.0 543.0Q234.0 543.0 203.0 527.5Q172.0 512.0 172.0 479.0Q172.0 450.0 189.5 437.0Q207.0 424.0 250.0 416.0L438.0 386.0Q642.0 353.0 642.0 197.0Q642.0 108.0 568.0 49.0Q494.0 -10.0 344.0 -10.0Z M967.0 0.0H780.0L643.0 501.0H798.0L857.0 272.0L878.0 116.0H888.0L928.0 287.0L1004.0 501.0H1197.0L1272.0 287.0L1312.0 116.0H1322.0L1344.0 272.0L1402.0 501.0H1555.0L1413.0 0.0H1226.0L1140.0 241.0L1103.0 379.0H1092.0L1054.0 241.0Z M1725.0 552.0H1575.0V670.0H1725.0ZM1725.0 0.0H1575.0V501.0H1725.0Z M1974.0 0.0H1824.0V377.0H1753.0V501.0H1827.0Q1839.0 579.0 1905.5 624.5Q1972.0 670.0 2085.0 670.0H2129.0V561.0H2061.0Q2009.0 561.0 1987.0 548.5Q1965.0 536.0 1968.0 501.0H2179.0V598.0H2329.0V501.0H2490.0V377.0H2329.0V198.0Q2329.0 161.0 2344.5 148.0Q2360.0 135.0 2400.0 135.0H2490.0V0.0H2367.0Q2179.0 0.0 2179.0 181.0V377.0H1974.0Z"/><path fill="#0a0a0c" d="M3076.0 0.0H2527.0V670.0H2677.0V135.0H3076.0Z M3097.0 250.0Q3097.0 369.0 3175.5 440.0Q3254.0 511.0 3383.0 511.0Q3512.0 511.0 3590.5 440.0Q3669.0 369.0 3669.0 250.0Q3669.0 132.0 3590.5 61.0Q3512.0 -10.0 3383.0 -10.0Q3254.0 -10.0 3175.5 61.0Q3097.0 132.0 3097.0 250.0ZM3383.0 379.0Q3308.0 379.0 3277.0 348.5Q3246.0 318.0 3246.0 250.0Q3246.0 183.0 3277.0 153.0Q3308.0 123.0 3383.0 123.0Q3458.0 123.0 3489.0 153.0Q3520.0 183.0 3520.0 250.0Q3520.0 317.0 3488.5 348.0Q3457.0 379.0 3383.0 379.0Z M3691.0 250.0Q3691.0 369.0 3769.5 440.0Q3848.0 511.0 3977.0 511.0Q4106.0 511.0 4184.5 440.0Q4263.0 369.0 4263.0 250.0Q4263.0 132.0 4184.5 61.0Q4106.0 -10.0 3977.0 -10.0Q3848.0 -10.0 3769.5 61.0Q3691.0 132.0 3691.0 250.0ZM3977.0 379.0Q3902.0 379.0 3871.0 348.5Q3840.0 318.0 3840.0 250.0Q3840.0 183.0 3871.0 153.0Q3902.0 123.0 3977.0 123.0Q4052.0 123.0 4083.0 153.0Q4114.0 183.0 4114.0 250.0Q4114.0 317.0 4082.5 348.0Q4051.0 379.0 3977.0 379.0Z M4454.0 -170.0H4304.0V501.0H4443.0V364.0H4453.0Q4481.0 511.0 4653.0 511.0Q4767.0 511.0 4830.0 441.0Q4893.0 371.0 4893.0 250.0Q4893.0 129.0 4831.5 59.5Q4770.0 -10.0 4658.0 -10.0Q4573.0 -10.0 4523.5 28.5Q4474.0 67.0 4461.0 135.0H4454.0ZM4454.0 243.0Q4454.0 181.0 4490.5 154.0Q4527.0 127.0 4600.0 127.0Q4674.0 127.0 4707.5 155.0Q4741.0 183.0 4741.0 250.0Q4741.0 317.0 4707.5 345.0Q4674.0 373.0 4601.0 373.0Q4526.0 373.0 4490.0 344.5Q4454.0 316.0 4454.0 251.0Z M5118.0 0.0H4925.0V175.0H5118.0Z"/></g></svg>